<?xml version="1.0" encoding="utf-8"?>
<!-- Generator: Adobe Illustrator 24.1.2, SVG Export Plug-In . SVG Version: 6.00 Build 0)  -->
<svg version="1.1" id="Слой_1" xmlns="http://www.w3.org/2000/svg" xmlns:xlink="http://www.w3.org/1999/xlink" x="0px" y="0px"
	 viewBox="0 0 300 150" style="enable-background:new 0 0 300 150;" xml:space="preserve">
<style type="text/css">
	.st0{fill:#FFFFFF;stroke:#000000;stroke-miterlimit:10;}
	.st1{fill:none;stroke:#B42A2A;stroke-width:3;stroke-miterlimit:10;}
	.st2{fill:#D00005;}
	.st3{fill:#B42A2A;stroke:#B42A2A;stroke-miterlimit:10;}
</style>
<path class="st0" d="M103.25,143.24V28.73c0-0.59,0.69-0.91,1.14-0.53l100.86,85.04v-86h14v116l-96.76-80.55
	c-1.88-1.57-4.74-0.23-4.74,2.22v46.14c0,3.34,3.68,5.37,6.51,3.59l19.78-12.46c0.42-0.27,0.97-0.23,1.36,0.09l11.35,9.46
	L103.25,143.24z"/>
<path class="st0" d="M103.25,143.24V28.73c0-0.59,0.69-0.91,1.14-0.53l100.86,85.04v-86h14v116l-96.76-80.55
	c-1.88-1.57-4.74-0.23-4.74,2.22v46.14c0,3.34,3.68,5.37,6.51,3.59l19.78-12.46c0.42-0.27,0.97-0.23,1.36,0.09l11.35,9.46
	L103.25,143.24z"/>
<rect x="76.58" y="11.05" transform="matrix(0.9544 -0.2987 0.2987 0.9544 -8.9722 35.8495)" class="st1" width="72.45" height="72.45"/>
<path class="st2" d="M104.39,28.2c-0.45-0.38-1.14-0.06-1.14,0.53v59.5l14.5-4.54V64.91c0-2.45,2.86-3.79,4.74-2.22l17.04,14.19
	L156,71.72L104.39,28.2z"/>
<path class="st3" d="M104.39,28.2c-0.45-0.38-1.14-0.06-1.14,0.53v59.5l14.5-4.54V64.91c0-2.45,2.86-3.79,4.74-2.22l17.04,14.19
	L156,71.72L104.39,28.2z"/>
</svg>
